<svg version="1.1" id="Layer_1" xmlns="http://www.w3.org/2000/svg" xmlns:xlink="http://www.w3.org/1999/xlink" x="0px" y="0px"
	 width="100%" viewBox="0 0 234 216" enable-background="new 0 0 234 216" xml:space="preserve">
<path fill="#292838" opacity="1.000000" stroke="none" 
	d="
M79.000000,217.000000 
	C76.299988,217.000000 73.599968,217.000000 70.256042,216.676971 
	C57.076668,214.264404 47.612591,205.022278 45.459301,192.596725 
	C45.268688,191.496796 45.918816,190.251175 46.558231,189.110168 
	C59.297543,184.429718 71.802994,180.058762 83.988068,174.927094 
	C115.105255,161.822266 144.547302,145.620773 172.039841,125.965759 
	C178.495270,121.350647 182.462509,115.313316 181.985092,107.015579 
	C181.506027,98.689331 176.054138,93.662354 169.987198,89.068542 
	C134.952499,62.540668 95.487030,44.849606 54.081203,31.059515 
	C51.130627,30.076836 47.992012,29.658752 44.964661,28.995838 
	C44.988491,29.013531 45.017311,29.065426 45.378792,28.805470 
	C46.063622,26.165129 46.069012,23.687271 46.763828,21.420761 
	C50.298698,9.889879 59.049267,4.163207 70.000000,1.000000 
	C72.700012,1.000000 75.400032,1.000000 78.675323,1.371041 
	C84.091240,3.257926 89.067947,4.443441 93.740204,6.368040 
	C100.528328,9.164207 107.060097,12.575747 113.768593,15.574044 
	C121.603958,19.075987 129.710571,22.026402 137.339523,25.921215 
	C147.610641,31.164932 157.728149,36.772232 167.555817,42.803185 
	C176.322067,48.182762 184.754883,54.145618 193.054504,60.233276 
	C199.989182,65.319771 206.510452,70.968956 213.228699,76.351608 
	C222.383682,83.686584 231.601044,90.964882 235.000000,103.000000 
	C235.000000,106.030594 235.000000,109.061188 234.670166,112.729805 
	C233.152527,120.552193 229.605453,126.323792 224.078369,131.028061 
	C180.641541,167.998489 132.430374,196.899857 79.000000,217.000000 
z"/>
<path fill="#FEFEFE" opacity="1.000000" stroke="none" 
	d="
M79.468658,217.000000 
	C132.430374,196.899857 180.641541,167.998489 224.078369,131.028061 
	C229.605453,126.323792 233.152527,120.552193 234.670166,113.183914 
	C235.000000,147.608246 235.000000,182.216492 235.000000,217.000000 
	C183.312576,217.000000 131.624939,217.000000 79.468658,217.000000 
z"/>
<path fill="#FEFEFE" opacity="1.000000" stroke="none" 
	d="
M235.000000,102.531342 
	C231.601044,90.964882 222.383682,83.686584 213.228699,76.351608 
	C206.510452,70.968956 199.989182,65.319771 193.054504,60.233276 
	C184.754883,54.145618 176.322067,48.182762 167.555817,42.803185 
	C157.728149,36.772232 147.610641,31.164932 137.339523,25.921215 
	C129.710571,22.026402 121.603958,19.075987 113.768593,15.574044 
	C107.060097,12.575747 100.528328,9.164207 93.740204,6.368040 
	C89.067947,4.443441 84.091240,3.257926 79.125305,1.371041 
	C130.911682,1.000000 182.823380,1.000000 235.000000,1.000000 
	C235.000000,34.687099 235.000000,68.374893 235.000000,102.531342 
z"/>
<path fill="#282737" opacity="1.000000" stroke="none" 
	d="
M1.000000,130.000000 
	C1.000000,130.000000 1.000000,129.500000 1.348455,129.121002 
	C1.737471,127.518105 1.778032,126.294197 1.890236,124.728020 
	C1.641252,123.590492 1.320625,122.795250 0.999999,122.000000 
	C1.000000,113.312439 1.000000,104.624870 1.304926,95.297791 
	C1.677867,93.749336 1.745881,92.840401 1.872576,91.559799 
	C1.620838,90.125427 1.310419,89.062714 1.000000,88.000000 
	C1.000000,88.000000 1.000000,87.500000 1.383991,87.069305 
	C3.809708,72.593155 5.468410,58.477501 8.025386,44.526482 
	C9.782898,34.937386 20.429775,27.052029 29.417751,27.831953 
	C31.754997,27.307705 33.673576,26.745161 36.013233,26.378075 
	C38.278728,26.719456 40.123138,26.865381 42.161270,27.244900 
	C42.903629,27.912266 43.452267,28.346039 44.239246,28.907303 
	C44.657497,29.045008 44.837406,29.055218 45.017311,29.065426 
	C45.017311,29.065426 44.988491,29.013531 44.932014,29.352278 
	C43.748341,36.126614 42.109215,42.521366 41.591915,49.005611 
	C40.157932,66.980362 39.191257,84.992393 37.750656,103.282516 
	C37.654808,107.387131 37.848206,111.198914 38.160561,115.457474 
	C39.223343,131.648422 39.905983,147.414337 41.213982,163.128204 
	C41.939171,171.840408 43.709530,180.465622 44.570488,189.147598 
	C33.414101,195.682541 10.574353,189.236374 7.285682,172.332535 
	C5.928946,165.358887 4.963599,158.306381 3.926563,151.274048 
	C2.882315,144.192841 1.970080,137.092148 1.000000,130.000000 
z"/>
<path fill="#FDFDFD" opacity="1.000000" stroke="none" 
	d="
M1.000000,130.468658 
	C1.970080,137.092148 2.882315,144.192841 3.926563,151.274048 
	C4.963599,158.306381 5.928946,165.358887 7.285682,172.332535 
	C10.574353,189.236374 33.414101,195.682541 44.763435,189.112671 
	C45.394691,189.060165 45.786861,189.049530 45.786861,189.049530 
	C45.786861,189.049530 46.178463,189.073212 46.178459,189.073212 
	C45.918816,190.251175 45.268688,191.496796 45.459301,192.596725 
	C47.612591,205.022278 57.076668,214.264404 69.806068,216.676971 
	C47.064682,217.000000 24.129362,217.000000 1.000000,217.000000 
	C1.000000,188.312729 1.000000,159.625031 1.000000,130.468658 
z"/>
<path fill="#FDFDFD" opacity="1.000000" stroke="none" 
	d="
M28.999084,27.793655 
	C20.429775,27.052029 9.782898,34.937386 8.025386,44.526482 
	C5.468410,58.477501 3.809708,72.593155 1.383991,86.819305 
	C1.000000,58.414463 1.000000,29.828928 1.000000,1.000000 
	C23.686981,1.000000 46.374832,1.000000 69.531342,1.000000 
	C59.049267,4.163207 50.298698,9.889879 46.763828,21.420761 
	C46.069012,23.687271 46.063622,26.165129 45.378792,28.805470 
	C44.837406,29.055218 44.657497,29.045008 44.172485,28.613438 
	C43.234104,27.798485 42.600830,27.404894 41.967552,27.011303 
	C40.123138,26.865381 38.278728,26.719456 35.684734,26.307749 
	C32.956463,26.625862 30.977774,27.209759 28.999084,27.793655 
z"/>
<path fill="#BDBDC0" opacity="1.000000" stroke="none" 
	d="
M1.000000,88.400040 
	C1.310419,89.062714 1.620838,90.125427 1.667075,91.552780 
	C1.402894,91.917419 1.000000,92.000000 1.000000,92.000000 
	C1.000000,90.933357 1.000000,89.866722 1.000000,88.400040 
z"/>
<path fill="#B3B3B6" opacity="1.000000" stroke="none" 
	d="
M1.818592,125.070297 
	C1.778032,126.294197 1.737471,127.518105 1.348455,128.871002 
	C1.000000,127.933311 1.000000,126.866623 1.202796,125.439117 
	C1.405591,125.078293 1.818592,125.070297 1.818592,125.070297 
z"/>
<path fill="#949499" opacity="1.000000" stroke="none" 
	d="
M1.000000,92.375000 
	C1.000000,92.000000 1.402894,91.917419 1.608395,91.924438 
	C1.745881,92.840401 1.677867,93.749336 1.304926,94.829140 
	C1.000000,94.250000 1.000000,93.500000 1.000000,92.375000 
z"/>
<path fill="#8B8B90" opacity="1.000000" stroke="none" 
	d="
M1.890235,124.728020 
	C1.818592,125.070297 1.405591,125.078293 1.202796,125.039146 
	C1.000000,124.250000 1.000000,123.500000 0.999999,122.375000 
	C1.320625,122.795250 1.641252,123.590492 1.890235,124.728020 
z"/>
<path fill="#FDFDFD" opacity="1.000000" stroke="none" 
	d="
M46.558235,189.110168 
	C46.178463,189.073212 45.786861,189.049530 45.786861,189.049530 
	C45.786861,189.049530 45.394691,189.060165 45.201744,189.095093 
	C43.709530,180.465622 41.939171,171.840408 41.213982,163.128204 
	C39.905983,147.414337 39.223343,131.648422 38.241138,115.001907 
	C38.148476,110.396286 38.094193,106.692993 38.039909,102.989693 
	C39.191257,84.992393 40.157932,66.980362 41.591915,49.005611 
	C42.109215,42.521366 43.748341,36.126614 44.908180,29.334583 
	C47.992012,29.658752 51.130627,30.076836 54.081203,31.059515 
	C95.487030,44.849606 134.952499,62.540668 169.987198,89.068542 
	C176.054138,93.662354 181.506027,98.689331 181.985092,107.015579 
	C182.462509,115.313316 178.495270,121.350647 172.039841,125.965759 
	C144.547302,145.620773 115.105255,161.822266 83.988068,174.927094 
	C71.802994,180.058762 59.297543,184.429718 46.558235,189.110168 
M71.971695,69.950394 
	C71.927071,89.663750 71.845947,109.377121 71.858238,129.090439 
	C71.862366,135.702957 72.104538,142.315338 72.354584,149.618011 
	C74.521698,153.726425 77.681282,153.751099 81.069473,151.452713 
	C84.499313,149.126083 87.734283,146.511078 91.041885,144.005569 
	C102.556549,135.283188 114.101875,126.600662 125.562355,117.807610 
	C131.707855,113.092461 132.466583,105.958717 127.196190,101.724075 
	C121.129387,96.849548 114.803566,92.298447 108.621315,87.566284 
	C100.639107,81.456367 92.551544,75.473091 84.765656,69.121124 
	C78.431900,63.953846 75.405060,63.718491 71.971695,69.950394 
z"/>
<path fill="#FDFDFD" opacity="1.000000" stroke="none" 
	d="
M29.417751,27.831953 
	C30.977774,27.209759 32.956463,26.625862 35.263653,26.112289 
	C33.673576,26.745161 31.754997,27.307705 29.417751,27.831953 
z"/>
<path fill="#131228" opacity="1.000000" stroke="none" 
	d="
M37.750660,103.282516 
	C38.094193,106.692993 38.148476,110.396286 38.122181,114.555145 
	C37.848206,111.198914 37.654808,107.387131 37.750660,103.282516 
z"/>
<path fill="#FDFDFD" opacity="1.000000" stroke="none" 
	d="
M42.161270,27.244898 
	C42.600830,27.404894 43.234104,27.798485 43.934143,28.485943 
	C43.452267,28.346039 42.903629,27.912266 42.161270,27.244898 
z"/>
<path fill="#282737" opacity="1.000000" stroke="none" 
	d="
M72.244148,69.055252 
	C75.405060,63.718491 78.431900,63.953846 84.765656,69.121124 
	C92.551544,75.473091 100.639107,81.456367 108.621315,87.566284 
	C114.803566,92.298447 121.129387,96.849548 127.196190,101.724075 
	C132.466583,105.958717 131.707855,113.092461 125.562355,117.807610 
	C114.101875,126.600662 102.556549,135.283188 91.041885,144.005569 
	C87.734283,146.511078 84.499313,149.126083 81.069473,151.452713 
	C77.681282,153.751099 74.521698,153.726425 72.534988,148.942352 
	C72.809967,147.612152 72.986824,146.957687 72.987221,146.303116 
	C73.001884,121.824516 73.011574,97.345886 72.968636,72.867363 
	C72.966408,71.596245 72.496384,70.325935 72.244148,69.055252 
z"/>
<path fill="#0A0823" opacity="1.000000" stroke="none" 
	d="
M72.107925,69.502823 
	C72.496384,70.325935 72.966408,71.596245 72.968636,72.867363 
	C73.011574,97.345886 73.001884,121.824516 72.987221,146.303116 
	C72.986824,146.957687 72.809967,147.612152 72.476654,148.597229 
	C72.104538,142.315338 71.862366,135.702957 71.858238,129.090439 
	C71.845947,109.377121 71.927071,89.663750 72.107925,69.502823 
z"/>
</svg>